# Rhino

mtllib 111?? z???.mtl
usemtl diffuse_Black
v 0 1 0
v 0.14193592965602875 0.5 0.2058013379573822
v 0.2838718593120575 0 0.4116026759147644
v 0 1 0
v 0.049295570701360703 0.5 0.24509170651435852
v 0.098591141402721405 0 0.49018341302871704
v 0 1 0
v -0.047585505992174149 0.5 0.24542945623397827
v -0.095171011984348297 0 0.49085891246795654
v 0 1 0
v -0.13685375452041626 0.5 0.20921531319618225
v -0.27370750904083252 0 0.4184306263923645
v 0 1 0
v -0.2058013379573822 0.5 0.14193592965602875
v -0.4116026759147644 0 0.2838718593120575
v 0 1 0
v -0.24509170651435852 0.5 0.049295570701360703
v -0.49018341302871704 0 0.098591141402721405
v 0 1 0
v -0.24542945623397827 0.5 -0.047585505992174149
v -0.49085891246795654 0 -0.095171011984348297
v 0 1 0
v -0.20921531319618225 0.5 -0.13685375452041626
v -0.4184306263923645 0 -0.27370750904083252
v 0 1 0
v -0.14193592965602875 0.5 -0.2058013379573822
v -0.2838718593120575 0 -0.4116026759147644
v 0 1 0
v -0.049295570701360703 0.5 -0.24509170651435852
v -0.098591141402721405 0 -0.49018341302871704
v 0 1 0
v 0.047585505992174149 0.5 -0.24542945623397827
v 0.095171011984348297 0 -0.49085891246795654
v 0 1 0
v 0.13685375452041626 0.5 -0.20921531319618225
v 0.27370750904083252 0 -0.4184306263923645
v 0 1 0
v 0.2058013379573822 0.5 -0.14193592965602875
v 0.4116026759147644 0 -0.2838718593120575
v 0 1 0
v 0.24509170651435852 0.5 -0.049295570701360703
v 0.49018341302871704 0 -0.098591141402721405
v 0 1 0
v 0.24542945623397827 0.5 0.047585505992174149
v 0.49085891246795654 0 0.095171011984348297
v 0 1 0
v 0.20921531319618225 0.5 0.13685375452041626
v 0.4184306263923645 0 0.27370750904083252
v 0 1 0
v 0.14193592965602875 0.5 0.2058013379573822
v 0.2838718593120575 0 0.4116026759147644
v 0.2838718593120575 0 0.4116026759147644
v 0.098591141402721405 0 0.49018341302871704
v -0.095171011984348297 0 0.49085891246795654
v -0.27370750904083252 0 0.4184306263923645
v -0.4116026759147644 0 0.2838718593120575
v -0.49018341302871704 0 0.098591141402721405
v -0.49085891246795654 0 -0.095171011984348297
v -0.4184306263923645 0 -0.27370750904083252
v -0.2838718593120575 0 -0.4116026759147644
v -0.098591141402721405 0 -0.49018341302871704
v 0.095171011984348297 0 -0.49085891246795654
v 0.27370750904083252 0 -0.4184306263923645
v 0.4116026759147644 0 -0.2838718593120575
v 0.49018341302871704 0 -0.098591141402721405
v 0.49085891246795654 0 0.095171011984348297
v 0.4184306263923645 0 0.27370750904083252
vt 0.67271023988723755 0
vt 0.49550625681877136 0
vt 0.31830227375030518 0
vt 0.67271023988723755 0.06440773606300354
vt 0.49550625681877136 0.06440773606300354
vt 0.31830227375030518 0.06440773606300354
vt 0.67271023988723755 0.12638621032238007
vt 0.49550625681877136 0.12638621032238007
vt 0.31830227375030518 0.12638621032238007
vt 0.67271023988723755 0.18801000714302063
vt 0.49550625681877136 0.18801000714302063
vt 0.31830227375030518 0.18801000714302063
vt 0.67271023988723755 0.2496337890625
vt 0.49550625681877136 0.2496337890625
vt 0.31830227375030518 0.2496337890625
vt 0.67271023988723755 0.31404155492782593
vt 0.49550625681877136 0.31404155492782593
vt 0.31830227375030518 0.31404155492782593
vt 0.67271023988723755 0.37602001428604126
vt 0.49550625681877136 0.37602001428604126
vt 0.31830227375030518 0.37602001428604126
vt 0.67271023988723755 0.43764376640319824
vt 0.49550625681877136 0.43764376640319824
vt 0.31830227375030518 0.43764376640319824
vt 0.67271023988723755 0.499267578125
vt 0.49550625681877136 0.499267578125
vt 0.31830227375030518 0.499267578125
vt 0.67271023988723755 0.56367534399032593
vt 0.49550625681877136 0.56367534399032593
vt 0.31830227375030518 0.56367534399032593
vt 0.67271023988723755 0.62565374374389648
vt 0.49550625681877136 0.62565374374389648
vt 0.31830227375030518 0.62565374374389648
vt 0.67271023988723755 0.68727761507034302
vt 0.49550625681877136 0.68727761507034302
vt 0.31830227375030518 0.68727761507034302
vt 0.67271023988723755 0.7489013671875
vt 0.49550625681877136 0.7489013671875
vt 0.31830227375030518 0.7489013671875
vt 0.67271023988723755 0.81330913305282593
vt 0.49550625681877136 0.81330913305282593
vt 0.31830227375030518 0.81330913305282593
vt 0.67271023988723755 0.87528753280639648
vt 0.49550625681877136 0.87528753280639648
vt 0.31830227375030518 0.87528753280639648
vt 0.67271023988723755 0.93691140413284302
vt 0.49550625681877136 0.93691140413284302
vt 0.31830227375030518 0.93691140413284302
vt 0.67271023988723755 0.99853515625
vt 0.49550625681877136 0.99853515625
vt 0.31830227375030518 0.99853515625
vt 0.31683743000030518 0.15915113687515259
vt 0.30400431156158447 0.22190055251121521
vt 0.26932606101036072 0.27279376983642578
vt 0.21831956505775452 0.30648654699325562
vt 0.15841871500015259 0.31830227375030518
vt 0.09595809131860733 0.30540981888771057
vt 0.045299094170331955 0.2705712616443634
vt 0.011761368252336979 0.21932892501354218
vt 0 0.15915113687515259
vt 0.012833142653107643 0.09640173614025116
vt 0.047511368989944458 0.045508526265621185
vt 0.098517864942550659 0.011815744452178478
vt 0.15841871500015259 0
vt 0.22087934613227844 0.012892474420368671
vt 0.27153834700584412 0.047731030732393265
vt 0.30507609248161316 0.098973348736763
vn 0.50780540704727173 0.44721359014511108 0.73629724979400635
vn 0.50780540704727173 0.44721359014511108 0.73629724979400635
vn 0.50780540704727173 0.44721359014511108 0.73629724979400635
vn 0.1763651967048645 0.44721359014511108 0.87686675786972046
vn 0.1763651967048645 0.44721359014511108 0.87686675786972046
vn 0.1763651967048645 0.44721359014511108 0.87686675786972046
vn -0.17024707794189453 0.44721359014511108 0.87807512283325195
vn -0.17024707794189453 0.44721359014511108 0.87807512283325195
vn -0.17024707794189453 0.44721359014511108 0.87807512283325195
vn -0.48962289094924927 0.44721359014511108 0.74851149320602417
vn -0.48962289094924927 0.44721359014511108 0.74851149320602417
vn -0.48962289094924927 0.44721359014511108 0.74851149320602417
vn -0.73629724979400635 0.44721359014511108 0.50780540704727173
vn -0.73629724979400635 0.44721359014511108 0.50780540704727173
vn -0.73629724979400635 0.44721359014511108 0.50780540704727173
vn -0.87686675786972046 0.44721359014511108 0.1763651967048645
vn -0.87686675786972046 0.44721359014511108 0.1763651967048645
vn -0.87686675786972046 0.44721359014511108 0.1763651967048645
vn -0.87807512283325195 0.44721359014511108 -0.17024707794189453
vn -0.87807512283325195 0.44721359014511108 -0.17024707794189453
vn -0.87807512283325195 0.44721359014511108 -0.17024707794189453
vn -0.74851149320602417 0.44721359014511108 -0.48962289094924927
vn -0.74851149320602417 0.44721359014511108 -0.48962289094924927
vn -0.74851149320602417 0.44721359014511108 -0.48962289094924927
vn -0.50780540704727173 0.44721359014511108 -0.73629724979400635
vn -0.50780540704727173 0.44721359014511108 -0.73629724979400635
vn -0.50780540704727173 0.44721359014511108 -0.73629724979400635
vn -0.1763651967048645 0.44721359014511108 -0.87686675786972046
vn -0.1763651967048645 0.44721359014511108 -0.87686675786972046
vn -0.1763651967048645 0.44721359014511108 -0.87686675786972046
vn 0.17024707794189453 0.44721359014511108 -0.87807512283325195
vn 0.17024707794189453 0.44721359014511108 -0.87807512283325195
vn 0.17024707794189453 0.44721359014511108 -0.87807512283325195
vn 0.48962289094924927 0.44721359014511108 -0.74851149320602417
vn 0.48962289094924927 0.44721359014511108 -0.74851149320602417
vn 0.48962289094924927 0.44721359014511108 -0.74851149320602417
vn 0.73629724979400635 0.44721359014511108 -0.50780540704727173
vn 0.73629724979400635 0.44721359014511108 -0.50780540704727173
vn 0.73629724979400635 0.44721359014511108 -0.50780540704727173
vn 0.87686675786972046 0.44721359014511108 -0.1763651967048645
vn 0.87686675786972046 0.44721359014511108 -0.1763651967048645
vn 0.87686675786972046 0.44721359014511108 -0.1763651967048645
vn 0.87807512283325195 0.44721359014511108 0.17024707794189453
vn 0.87807512283325195 0.44721359014511108 0.17024707794189453
vn 0.87807512283325195 0.44721359014511108 0.17024707794189453
vn 0.74851149320602417 0.44721359014511108 0.48962289094924927
vn 0.74851149320602417 0.44721359014511108 0.48962289094924927
vn 0.74851149320602417 0.44721359014511108 0.48962289094924927
vn 0.50780540704727173 0.44721359014511108 0.73629724979400635
vn 0.50780540704727173 0.44721359014511108 0.73629724979400635
vn 0.50780540704727173 0.44721359014511108 0.73629724979400635
vn 0 -1 0
vn 0 -1 0
vn 0 -1 0
vn 0 -1 0
vn 0 -1 0
vn 0 -1 0
vn 0 -1 0
vn 0 -1 0
vn 0 -1 0
vn 0 -1 0
vn 0 -1 0
vn 0 -1 0
vn 0 -1 0
vn 0 -1 0
vn 0 -1 0
vn 0 -1 0
f 5/5/5 2/2/2 1/1/1
f 8/8/8 5/5/5 4/4/4
f 11/11/11 8/8/8 7/7/7
f 14/14/14 11/11/11 10/10/10
f 17/17/17 14/14/14 13/13/13
f 20/20/20 17/17/17 16/16/16
f 23/23/23 20/20/20 19/19/19
f 26/26/26 23/23/23 22/22/22
f 29/29/29 26/26/26 25/25/25
f 32/32/32 29/29/29 28/28/28
f 35/35/35 32/32/32 31/31/31
f 38/38/38 35/35/35 34/34/34
f 41/41/41 38/38/38 37/37/37
f 44/44/44 41/41/41 40/40/40
f 47/47/47 44/44/44 43/43/43
f 50/50/50 47/47/47 46/46/46
f 5/5/5 6/6/6 3/3/3 2/2/2
f 11/11/11 12/12/12 9/9/9 8/8/8
f 8/8/8 9/9/9 6/6/6 5/5/5
f 17/17/17 18/18/18 15/15/15 14/14/14
f 23/23/23 24/24/24 21/21/21 20/20/20
f 20/20/20 21/21/21 18/18/18 17/17/17
f 14/14/14 15/15/15 12/12/12 11/11/11
f 26/26/26 27/27/27 24/24/24 23/23/23
f 32/32/32 33/33/33 30/30/30 29/29/29
f 38/38/38 39/39/39 36/36/36 35/35/35
f 35/35/35 36/36/36 33/33/33 32/32/32
f 44/44/44 45/45/45 42/42/42 41/41/41
f 50/50/50 51/51/51 48/48/48 47/47/47
f 47/47/47 48/48/48 45/45/45 44/44/44
f 41/41/41 42/42/42 39/39/39 38/38/38
f 29/29/29 30/30/30 27/27/27 26/26/26
f 62/62/62 60/60/60 61/61/61
f 65/65/65 57/57/57 62/62/62
f 65/65/65 62/62/62 63/63/63
f 58/58/58 59/59/59 60/60/60
f 62/62/62 58/58/58 60/60/60
f 58/58/58 62/62/62 57/57/57
f 65/65/65 63/63/63 64/64/64
f 67/67/67 65/65/65 66/66/66
f 53/53/53 65/65/65 67/67/67
f 52/52/52 53/53/53 67/67/67
f 56/56/56 57/57/57 55/55/55
f 55/55/55 53/53/53 54/54/54
f 55/55/55 65/65/65 53/53/53
f 65/65/65 55/55/55 57/57/57
